<svg xmlns="http://www.w3.org/2000/svg" viewBox="0 0 720 980" preserveAspectRatio="none"><defs><linearGradient id="b" x1="0" y1="0" x2="1" y2="1"><stop stop-color="#210b30"/><stop offset=".5" stop-color="#4a1757"/><stop offset="1" stop-color="#210b30"/></linearGradient><radialGradient id="g"><stop stop-color="#f3d37a" stop-opacity=".22"/><stop offset="1" stop-color="#f3d37a" stop-opacity="0"/></radialGradient></defs><rect width="720" height="980" fill="url(#b)"/><ellipse cx="360" cy="175" rx="300" ry="220" fill="url(#g)"/><rect x="16" y="16" width="688" height="948" fill="none" stroke="#e6c474" stroke-width="2" opacity=".8"/><rect x="28" y="28" width="664" height="924" fill="none" stroke="#fff0c8" opacity=".28"/><g fill="none" stroke="#d9b666" stroke-width="2"><path d="M38 78Q180 150 360 78T682 78"/><path d="M70 18v90M650 18v90"/></g><g fill="#f5d77b"><circle cx="82" cy="95" r="4"/><circle cx="155" cy="115" r="4"/><circle cx="225" cy="95" r="4"/><circle cx="360" cy="115" r="4"/><circle cx="495" cy="95" r="4"/><circle cx="565" cy="115" r="4"/><circle cx="638" cy="95" r="4"/></g><g transform="translate(555 205) rotate(-8)" stroke="#e4c16f" stroke-width="3"><ellipse rx="74" ry="30" fill="#a05c62"/><path d="M-74 0v65Q0 112 74 65V0" fill="#653447"/><ellipse rx="62" ry="25" fill="#c07976"/><path d="M-52-8L0 25 52-8M-52 24L0-8 52 24" fill="none" stroke-width="2"/><path d="M-55 22l-20 88M55 22l20 88" stroke-linecap="round"/></g><g fill="#f0cf75"><path d="M175 185l5 11 11 5-11 5-5 11-5-11-11-5 11-5z"/><path d="M470 270l4 9 9 4-9 4-4 9-4-9-9-4 9-4z"/></g><g fill="none" stroke="#cfa95d" stroke-width="2.5"><path d="M44 870c-25-55 7-91 47-77 37 13 40 50 12 71-19 14-38 9-39-8-1-14 11-23 24-17"/><path d="M676 870c25-55-7-91-47-77-37 13-40 50-12 71 19 14 38 9 39-8 1-14-11-23-24-17"/></g></svg>