<svg xmlns="http://www.w3.org/2000/svg" viewBox="0 0 720 980" preserveAspectRatio="none"><defs><linearGradient id="b" x1="0" y1="0" x2="1" y2="1"><stop stop-color="#7d1029"/><stop offset=".5" stop-color="#3d0617"/><stop offset="1" stop-color="#7d1029"/></linearGradient><radialGradient id="g"><stop stop-color="#f3d37a" stop-opacity=".22"/><stop offset="1" stop-color="#f3d37a" stop-opacity="0"/></radialGradient></defs><rect width="720" height="980" fill="url(#b)"/><ellipse cx="360" cy="175" rx="300" ry="220" fill="url(#g)"/><rect x="16" y="16" width="688" height="948" fill="none" stroke="#e6c474" stroke-width="2" opacity=".8"/><rect x="28" y="28" width="664" height="924" fill="none" stroke="#fff0c8" opacity=".28"/><path d="M38 80Q110 130 182 80T326 80T470 80T614 80T682 80" fill="none" stroke="#e9c774" stroke-width="3"/><g fill="none" stroke="#e8c774" stroke-linecap="round"><path d="M170 345V210Q170 122 360 100Q550 122 550 210V345" stroke-width="5"/><path d="M205 345V218Q205 157 360 135Q515 157 515 218V345" stroke-width="2.5"/></g><g fill="none" stroke="#e8c774" stroke-width="2"><path d="M195 178q24-45 49-10q27-53 53-7q28-54 56 4q29-54 56 7q27-35 51 10"/></g><g fill="none" stroke="#e4c06e" stroke-width="3"><path d="M60 285q0-34 27-47 27 13 27 47-13 19-27 19t-27-19z"/><path d="M72 238q15-17 30 0M67 226q20-18 40 0"/><path d="M633 285q0-34 27-47 27 13 27 47-13 19-27 19t-27-19z"/><path d="M645 238q15-17 30 0M640 226q20-18 40 0"/></g><g fill="none" stroke="#efc96f" stroke-width="2.5"><path d="M255 290q42 38 105 38t105-38"/><path d="M275 299q25 48 85 54q60-6 85-54"/></g><g fill="none" stroke="#cda85d" stroke-width="2.5" opacity=".85"><path d="M42 870q45-65 100-32q-47 11-63 70"/><path d="M678 870q-45-65-100-32q47 11 63 70"/></g><g fill="#dfbd69"><circle cx="92" cy="842" r="7"/><circle cx="112" cy="850" r="5"/><circle cx="628" cy="842" r="7"/><circle cx="608" cy="850" r="5"/></g><g fill="#efc96f"><path d="M42 875q30-30 60 0q-30 20-60 0z"/><path d="M618 875q30-30 60 0q-30 20-60 0z"/></g><path d="M90 930q35-55 70 0q35-55 70 0M490 930q35-55 70 0q35-55 70 0" fill="none" stroke="#d7b25f" stroke-width="2" opacity=".55"/></svg>